<?xml version="1.0" encoding="UTF-8"?><svg xmlns="http://www.w3.org/2000/svg" viewBox="0 0 250 250"><defs><style>.d{fill:#fff;}.d,.e{fill-rule:evenodd;}.f{opacity:.2;}.e{fill:#625eab;}</style></defs><g id="a"/><g id="b"><g id="c"><g><path class="d" d="M250,125c0,69.03-55.96,125-125,125-58.67,0-107.91-40.42-121.37-94.93-2.38-9.62-3.64-19.69-3.64-30.06,0-4.58,.25-9.11,.73-13.56C7.49,48.78,60.54,0,125,0c69.03,0,125,55.96,125,125Z"/><g class="f"><path class="e" d="M93.42,209.5c1.57,3.36,2.62,6.3,5.3,9.08,2.91,3.02,5.17,3.59,8.94,4.69,2.2,.64,2.65,1.41,5.45,1.36,1.83-.03,4.36-.47,6.13-.07,3.97,.9,6.07,4.42,10.52,4.66,4.22,.23,6.94-1.17,10.6-2.29,3.44-1.05,7.45-2.55,10.64-3.76,3.49-1.32,6.6-2.25,10.22-3.41,3.87-1.24,5.86-3.82,10.71-2.47,.31,1.8-.14,4.66,2.08,5.56,1.52,.62,4.05-.99,5.68-1.61,4.24-1.63,8.08-2.53,12.1-4.21,1.95-.82,3.36-.76,5.34-2.23,1.9-1.41,3.94-2.46,5.91-3.78,3.66-2.44,7.25-5.1,10.89-7.57,6.99-4.76,11.5-11.28,15.75-18.17,2.24-3.63,3.52-7.63,4.92-11.77,1.73-5.1,1.15-6.55-2.27-10.71-6.12,2.55-8.55-1.24-6.85-7.79,1.49-5.73,2.13-13.36,.84-19.35-.23-1.07-1.04-1.82-1.22-3.33-.19-1.66,.14-2.9-.3-4.58-.72-2.75-1.2-4.61-1.18-7.57,.02-2.97,.41-6.22-.34-9.08-.47-1.8-1.12-2.58-1.21-4.54-.1-2.01,.25-3.77-.31-5.71-1.46-5.05-6.08-6.47-10.26-7.91-2.85-.98-4.28-1.95-6.09-.02-1.94,2.06-1.46,4.9-1.47,7.59-.03,5.06,3.23,9.52,6.05,13.63,1.26,1.83,3.46,3.59,3.14,6.1-.18,1.38-1.88,1.59-1.78,2.98,.13,1.68,1.94,2.19,2.84,3.37,7.23,9.44-6.39,17.74-12.87,22.75-3.7,2.85-9.26,4.31-10.67,9.05-1.51,5.07,1.98,9.3,3.82,13.63,1.92,4.53,3.59,12.47,.79,16.72-1.2,1.81-3.53,2.89-5.33,3.76-2.66,1.28-3.67,2.87-6.02,4.58-3.82,2.78-8.55,3.7-13.29,3.4-3.01-.19-5.2-1.41-7.57-3.06-1.82-1.27-4.26-3.59-6.4-4.2-1.54-.44-2.68-.11-4.24-.3-2.13-.26-2.55-1.14-4.42-1.63-3.22-.83-5.51,1.44-8.03,2.72-2.14,1.09-4.68,2.64-7.28,1.96-2.51-.65-5.41-2.27-7.82-2.76-5.78-1.2-15.13-1.61-19.76,2.32-2.33,1.98-3.15,4.76-5.24,6.84-1.99,1.99-5.85,2.52-6.47,7.16Z"/><path class="e" d="M208.5,77.77c-5.55,.11-10.65-4.06-15.18-7.2-3.72-2.57-7.62-6.62-9.42-10.6-.54-1.2-.72-2.19-1.14-3.4-.09-.27-1.44-3.86-1.44-3.97,.05-2.11,1.77-4.62,3.34-6.24,4.51-4.65,11.41-1.31,15.94,1.5,4.28,2.66,8.42,5.66,12.03,9.09,1.74,1.66,4.13,3.17,5.37,5.26,1.63,2.77,1.16,6.14,1.11,9.49-.07,5.12,6.63,11.02-1.48,12.15-3.18,.44-12.94-2.24-13.67-6.09h4.54Z"/><path class="e" d="M108.56,239.79c-1.38,1.53-3,.47-4.56-.02-1.5-.48-2.82-.75-4.52-.74-3.32,.02-6.32,.03-9.46-.76-2.99-.75-5.85-1.18-8.7-1.89-1.14-.28-2.23-.92-3.38-1.16-.71-.15-1.51,.1-2.24-.04-.34-.06-.37-.47-.61-.52-.58-.13-1.14-.05-1.72-.15-2.86-.5-5.56-1.36-8.12-2.13-1.21-.36-2.32-.41-3.43-1.09-1.16-.71-2.76-1.5-3.8-2.27-4.08-3.02-8.56-5.56-12.28-9.3-3.51-3.52-7.12-6.75-10.8-10.03-.85-.76-1.54-1.76-2.44-2.47-.99-.78-1.92-1.13-2.85-2.08-1.91-1.94-3.4-4.05-4.92-6.26-2.99-4.32-6.83-7.85-9.18-12.57-1.14-2.29-2.16-4.51-3.5-6.69-.85-1.38-1.68-3.08-2.29-4.58-.46-1.14-1.39-2.48-1.7-3.57-.47-1.63-.46-3.19-.91-4.77-.2-.69-.65-1.16-.82-1.83-.21-.85,.25-1.86,.07-2.72-.16-.77-.65-1.1-.82-1.83-.21-.85,.25-1.86,.07-2.72-.16-.77-.65-1.1-.82-1.83-.24-.97,.31-2.14,.08-3.11-.18-.72-.66-1.06-.83-1.83-.17-.79,.02-1.87,.03-2.68,.02-1.95-.67-3.45-.77-5.3-.09-1.7-.36-4.06-.01-5.71,.16-.76,.65-1.11,.82-1.83,.24-.99-.24-1.99,.09-3.01,2.04-.53,1.4,3.8,1.39,4.86-.02,1.96,.8,3.02,.76,4.92-.06,2.34,.93,2.67,2.31,4.37,.6,.74,1.97,2.19,2.27,3.16,.2,.64,.18,1.68,.34,2.31,.2,.79,.39,1.32,.38,2.27-.03,1.85-.13,2.78,1.31,3.97,1,.82,2.7,1.85,3.95,2.13,1.72,.39,3.22,.36,4.99,.69,.8,.15,1.08,.65,1.82,.83,.96,.23,1.98-.37,2.92,.11,.88,.46,2.01,2.22,2.25,3.05,.48,1.63,.15,2.96-.59,4.37-.26,.5-.46,1.03-.76,1.51-.35,.57-1.05,1.1-1.36,1.67-1.43,2.62,.63,6.88,1.2,9.1,.22,.86,1.52,3.48,.81,4.26-.72,.79-5.01,.11-5.82-.37-.47,.96,.43,2.8,.71,3.81,.33,1.18,.91,2.9,1.61,4.05,1.37,2.25,3.85,4.35,6.17,5.58,1.54,.81,2.48,1.24,2.76-.83,.13-.94-.14-1.45,.33-2.32,.34-.62,.96-.69,1.2-1.45,.26-.82-.27-1.87-.06-2.71,.15-.62,.59-1.01,.72-1.55,.42-1.79-.27-3.8,.03-5.61,.61-3.64,3.32-5.28,6.47-6.06,3.22-.79,6.39-1.68,9.42-3.03,3.41-1.51,7.09-2.06,10.64-.94,2.9,.91,5.2,2.66,7.85,4.06,1.23,.65,2.33,.94,3.52,1.4,1.39,.54,2.83,1.06,4.21,1.46,2.5,.72,5.38,1.13,7.69,2.51,2.17,1.29,5.1,3.01,6.64,5.11,1.47,2.01,2.88,6.15,1.82,8.67-.81,1.9-3.68,3.57-5.05,5.17-2.33,2.73-1.71,4.54,0,7.36,.63,1.03,1.72,2.38,2.02,3.49,.39,1.48,.15,3.71,.07,5.24-.08,1.46-.52,2.41-1.31,3.61-.74,1.13-2.48,1.83-3.08,2.97-.55,1.03-.04,1.55,.39,2.33,.12,.22,.5,.29,.62,.52,.29,.54,.1,1.04,.33,1.56,.75,1.73,2.25,1.47,3.8,1.87,1.6,.42,3.01,.25,4.56-.36,.92-.36,1.22-.64,2.23-.79,1.11-.17,1.64,.43,2.46,.6,1.86,.39,2.93-.89,4.78-.99,1.48-.08,2.41,.58,3.56,1.73,.96,.96,2.3,2.56,2.14,3.99-.17,1.47-2.04,2.4-3.08,3.76Z"/><path class="e" d="M94.18,183.01c.47-.26,.87-.46,1.32-.65,1.19,1.37,2.51,2.75,3.98,3.67,2.21,1.39,3.31,.51,3.81-1.86,.26-1.22-.4-1.97-.62-2.85-.25-1.01-.01-2.08-1.08-2.71-1.47-.87-5.78-.42-5.15,2.12l-2.27,2.27Z"/><path class="e" d="M21.5,85.34c-.34,.57-.8,.81-1.4,.7-.32-1.29-.3-3.49-.05-4.8,.13-.7,.6-1.05,.71-1.94,.09-.73-.01-1.39,.15-2.12,.21-.94,.98-2.42,1.18-3.36,.31-1.47,.36-2.26,.95-3.6,.54-1.23,.85-2.82,1.4-4.22,.5-1.27,1.1-2.2,1.8-3.36,1.39-2.3,2.55-4.53,3.97-6.84,2.51-4.08,5.35-8.14,9.14-11.34,1.3-1.09,2.77-1.91,4.13-2.86,.47-.33,.83-.85,1.28-1.15,.44-.29,1.16-.43,1.56-.72,1.18-.86,4.58-4.31,6.13-3.48-1.07,2.81-2.91,5.63-4.26,8.38-1.56,3.18-4.48,3.04-6.81,5.3-3.65,3.54,2.43,5.01,4.54,6.4,2.06,1.35,2.1,3.29,2.09,5.52,0,2.08,.15,3.74,.76,5.68,.25,.79,.66,1.81,.8,2.65-.03,.52-.06,1.04-.08,1.56,.05,.41,.26,.71,.63,.89,.47,2.16-.43,3.44-1.16,5.3-.72,1.82-1.17,3.56-2.65,4.94-1.49,1.38-3.12,.92-5.11,.95-1.28,.02-1.86-.3-3.03-.59-.76-.19-1.86-.64-2.44-.75-.9-.18-1.79-.15-2.69-.34-.94-.2-1-.75-2.27-.41-1.31,.34-2.55,1.83-3.91,2.14-1.9,.43-4.07-.46-5.97,.09-.04,.21-.09,.42,.63,1.38Z"/></g></g></g></g></svg>